<svg xmlns="http://www.w3.org/2000/svg" viewBox="0 0 100 100">
  <defs>
    <linearGradient id="g" x1="0" y1="0" x2="1" y2="1">
      <stop offset="0%" stop-color="#f4e5b2"/>
      <stop offset="50%" stop-color="#d4af37"/>
      <stop offset="100%" stop-color="#b8941e"/>
    </linearGradient>
    <radialGradient id="bg" cx="50%" cy="50%" r="50%">
      <stop offset="0%" stop-color="#1a0b2e"/>
      <stop offset="100%" stop-color="#0d0617"/>
    </radialGradient>
  </defs>
  <circle cx="50" cy="50" r="48" fill="url(#bg)" stroke="url(#g)" stroke-width="2"/>
  <path d="M50 10 C52 38,62 48,90 50 C62 52,52 62,50 90 C48 62,38 52,10 50 C38 48,48 38,50 10Z" fill="url(#g)"/>
  <path d="M50 25 C51 44,56 49,75 50 C56 51,51 56,50 75 C49 56,44 51,25 50 C44 49,49 44,50 25Z" fill="#f4e5b2" opacity="0.6"/>
  <circle cx="50" cy="50" r="3" fill="#fff" opacity="0.9"/>
</svg>
